<svg width="51" height="43" viewBox="0 0 51 43" fill="none" xmlns="http://www.w3.org/2000/svg">
<path d="M2.67387 0.159156C1.73186 0.449005 1.15216 0.883779 0.838158 1.48763C0.548308 2.01902 0.5 4.67598 0.5 17.1637V32.1634L1.32124 32.9846L2.14248 33.8058H11.6109H21.1035L20.9344 35.7865C20.8378 36.8976 20.717 38.1536 20.6204 38.5642L20.4996 39.3613H18.4707C16.7316 39.3613 16.3934 39.4337 15.8379 39.8927C15.1132 40.5448 14.606 41.9941 15.0649 42.1632C15.234 42.2115 20.0407 42.2356 25.7411 42.2115C35.9824 42.139 36.1273 42.139 36.1998 41.6559C36.2481 41.3661 36.0066 40.7864 35.7167 40.3275L35.137 39.4821L32.939 39.4096L30.741 39.3371L30.596 37.8396C30.4994 37.0183 30.3787 35.7623 30.282 35.086L30.1613 33.8058H39.4364C49.5812 33.8058 49.3638 33.83 50.1367 32.3566C50.4507 31.7527 50.499 29.4823 50.499 16.6081C50.499 -0.130694 50.5957 0.7147 48.8566 0.231618C47.9629 -0.00992305 3.42265 -0.10654 2.67387 0.159156ZM47.9629 14.7241V26.4388L25.8135 26.5113L3.64004 26.5596V14.7241V2.88857L25.8135 2.93688L47.9629 3.00934V14.7241Z" fill="white"/>
</svg>
